<svg width="100" height="100" viewBox="0 0 100 100" fill="none" xmlns="http://www.w3.org/2000/svg">
<g clip-path="url(#clip0_202_1197)">
<path d="M9.59827 36.2346C16.3934 36.222 23.1886 36.2007 29.9838 36.1985C48.3399 36.1925 66.696 36.1752 85.052 36.2139C87.8832 36.2199 90.7138 36.498 93.5164 36.7345C93.2644 36.8804 93.0406 36.942 92.722 37.0018C64.952 36.9984 37.2768 36.9968 9.60104 36.9191C9.59969 36.6402 9.59898 36.4374 9.59827 36.2346Z" fill="#D6D6D9"/>
<path d="M9.51974 36.248C9.59893 36.4383 9.59964 36.6411 9.55418 36.9735C9.70449 37.2696 9.89344 37.5701 10.0986 37.5816C11.9106 37.6836 13.7252 37.7812 15.5394 37.7911C20.5592 37.8184 25.5791 37.8029 30.5993 37.8685C30.5999 38.0186 30.6001 38.1043 30.5103 38.2056C29.8117 38.2421 29.203 38.263 28.5025 38.2677C26.5399 38.2647 24.6693 38.278 22.7099 38.2735C22.0789 38.2686 21.5366 38.2815 20.9027 38.2767C18.9821 38.2844 17.1524 38.3487 15.3244 38.319C14.4012 38.304 14.0253 38.7812 13.7865 39.5554C12.8542 42.5778 12.7858 45.6397 13.3726 48.7247C13.8456 51.2109 13.8651 51.2072 16.18 51.6434C16.0377 51.801 15.9117 51.9617 15.7838 51.9632C13.7975 51.9866 11.8109 51.9839 9.82447 52.0026C9.49947 52.0057 9.17517 52.082 8.85055 52.1244C8.84615 52.2137 8.84175 52.303 8.83735 52.3923C9.02679 52.4648 9.21624 52.5374 9.4037 52.6836C9.40056 53.0037 9.39941 53.2501 9.3142 53.5155C8.88575 53.5372 8.54136 53.5398 8.17759 53.5125C8.12572 53.4466 8.08696 53.4197 8.02188 53.3425C7.894 53.1072 7.78617 52.9311 7.65511 52.6836C7.43964 52.2047 7.24739 51.7973 6.99597 51.2644C7.93849 50.9923 8.74748 50.7205 9.57533 50.5314C10.2819 50.3699 10.4629 50.0613 10.4439 49.2934C10.3711 46.3512 10.3416 43.4015 10.4877 40.4642C10.5345 39.5237 10.3717 39.2334 9.50086 39.1232C8.73399 39.0261 7.98522 38.7859 7.15758 38.5924C7.4421 38.0534 7.65627 37.6477 7.91587 37.2049C7.97402 36.9788 7.98674 36.7899 7.99946 36.601C8.48007 36.4875 8.96067 36.3741 9.51974 36.248Z" fill="#0055C7"/>
<path d="M61.6086 57.7772C61.4532 57.7886 61.2979 57.8 61.0023 57.7428C60.4322 57.6503 60.0025 57.6057 59.5728 57.6054C48.5531 57.5989 37.5333 57.5992 26.5136 57.5846C26.1389 57.5842 25.7643 57.4427 25.3988 57.3112C25.4781 57.1674 25.5482 57.0792 25.7108 56.9899C39.6439 56.984 53.4845 56.9792 67.3612 57.0286C67.5086 57.2151 67.6199 57.3475 67.6303 57.5104C66.4362 57.5625 65.3424 57.5689 64.2498 57.6105C63.3686 57.644 62.4889 57.72 61.6086 57.7772Z" fill="#A4A5A8"/>
<path d="M92.8168 37.0044C93.0406 36.9428 93.2644 36.8812 93.5616 36.8108C93.7998 36.8002 93.9646 36.7985 94.1893 36.8821C94.1759 37.1812 94.1073 37.3968 94.0286 37.6085C93.7865 38.2597 94.1222 39.9897 94.5753 40.4692C94.5877 42.9491 94.6498 45.3357 94.5707 47.7176C94.5386 48.6843 94.842 49.1354 95.7707 49.2093C95.6255 50.5195 95.4803 51.8296 95.1975 53.1211C95.0237 52.836 94.9874 52.5696 94.9693 52.2291C95.0948 51.5718 95.2284 50.9917 95.2985 50.404C95.3353 50.0958 95.2607 49.7743 95.2363 49.4588C94.8788 49.5173 94.5214 49.5757 94.121 49.6889C93.988 50.1203 93.8886 50.495 93.8101 50.8741C93.6924 51.4422 93.3802 51.6271 92.8287 51.312C92.8801 50.2986 93.0045 49.3708 92.9914 48.445C92.9387 44.6973 92.8437 40.9502 92.783 37.1547C92.8067 37.0725 92.8117 37.0385 92.8168 37.0044Z" fill="#464E57"/>
<path d="M7.67836 52.7544C7.78619 52.9305 7.89402 53.1066 8.00781 53.388C8.01378 53.4933 8.02495 53.589 7.96497 53.6033C7.93897 54.1356 7.97297 54.6536 7.95459 55.1618C7.81498 55.0945 7.72777 55.0369 7.60923 54.9179C7.08083 54.4544 6.58374 54.0522 6.08665 53.6501C5.99148 53.7043 5.89632 53.7585 5.80115 53.8127C5.96605 54.1483 6.13096 54.484 6.32908 54.8855C6.5187 55.3463 6.8868 55.818 6.03731 55.8486C5.82715 55.3473 5.50447 54.8632 5.42485 54.3419C4.85257 50.5954 4.3162 46.8348 4.62358 43.034C4.75515 41.407 5.06802 39.7834 5.44021 38.1914C5.66592 37.226 6.20546 36.3918 7.48167 36.7274C7.58914 36.7556 7.73083 36.6538 7.92805 36.6064C7.98676 36.7894 7.97404 36.9783 7.83505 37.1962C6.80407 37.2054 6.27353 37.6953 6.06401 38.5224C5.84463 39.3884 5.65176 40.2654 5.51979 41.1484C5.00497 44.5932 5.03897 48.0301 5.80587 51.4389C6.09771 52.7362 6.31098 52.8577 7.67836 52.7544Z" fill="#30373D"/>
<path d="M94.0492 56.207C93.3893 56.6038 92.7728 57.1889 92.0594 57.3528C91.0144 57.5928 89.8999 57.5293 88.8152 57.5987C87.7986 57.6637 86.7823 57.7332 85.6159 57.7312C85.071 57.6374 84.6763 57.5943 84.2813 57.5919C80.7002 57.5695 77.1191 57.5542 73.5798 57.4852C73.7777 57.2793 73.9337 57.1251 74.1775 56.9716C79.4511 56.9124 84.6369 56.8565 89.8224 56.7842C90.2148 56.7787 90.6054 56.6567 91.0826 56.5926C91.6819 56.5276 92.1955 56.4588 92.7823 56.3711C93.2534 56.3037 93.6513 56.2554 94.0492 56.207Z" fill="#A4A5A8"/>
<path d="M95.7904 49.1277C94.842 49.1353 94.5385 48.6843 94.5706 47.7175C94.6497 45.3356 94.5877 42.949 94.6474 40.4523C95.0504 40.1999 95.3884 40.0594 95.7264 39.9189C95.8868 41.954 96.1141 43.987 96.1791 46.0251C96.2111 47.0272 95.9427 48.0388 95.7904 49.1277Z" fill="#343A42"/>
<path d="M25.6183 56.9911C25.5482 57.0793 25.4781 57.1675 25.3327 57.3331C24.979 57.5356 24.7006 57.6608 24.4222 57.7859C22.7729 58.3365 21.1413 58.2642 19.4321 57.5752C19.1465 57.3297 18.9537 57.1567 18.7767 56.9117C19.0783 56.6041 19.3287 56.2516 19.6557 56.1527C21.2693 55.6645 22.9156 55.6161 24.5265 56.1409C24.939 56.2753 25.2569 56.6999 25.6183 56.9911ZM20.6285 57.2879C21.8059 57.7025 22.9433 57.7743 24.1091 57.0011C23.2714 56.3786 21.2406 56.1974 20.5992 56.6384C20.4889 56.7143 20.5244 57.0023 20.6285 57.2879Z" fill="#30373D"/>
<path d="M74.0898 56.9712C73.9338 57.1254 73.7778 57.2796 73.5226 57.4984C73.2944 57.6345 73.1654 57.7059 73.0364 57.7774C71.4629 58.2457 69.8872 58.2776 68.2334 57.7331C68.0156 57.6037 67.8734 57.5421 67.7312 57.4804C67.6199 57.3481 67.5086 57.2157 67.3771 56.9566C67.588 56.6197 67.7846 56.309 68.0559 56.2161C69.7229 55.6452 71.4243 55.5914 73.1005 56.1466C73.4797 56.2723 73.7626 56.6886 74.0898 56.9712ZM71.0535 57.5936C71.5846 57.4445 72.1156 57.2954 72.7976 57.104C71.9353 56.3819 69.9031 56.1767 69.2123 56.5962C69.0933 56.6685 68.9347 56.8667 68.9628 56.9493C69.018 57.1114 69.1716 57.3213 69.3202 57.3553C69.8321 57.4724 70.3593 57.5223 71.0535 57.5936Z" fill="#30373D"/>
<path d="M18.761 56.9834C18.9538 57.1563 19.1466 57.3293 19.3785 57.5547C19.2527 57.6707 19.0877 57.7342 18.7915 57.7294C17.4481 57.6428 16.2356 57.6 15.0237 57.6146C14.2196 57.6243 13.4165 57.7163 12.6129 57.7715C11.0292 57.5668 9.44554 57.3622 7.86096 57.0253C8.10747 56.7966 8.35488 56.7002 8.68394 56.6201C9.12345 56.6909 9.48035 56.785 9.83933 56.7937C12.813 56.8659 15.787 56.9222 18.761 56.9834Z" fill="#A4A5A8"/>
<path d="M24.5144 57.792C24.7007 57.6607 24.9791 57.5355 25.3236 57.3887C25.7643 57.4427 26.1389 57.5842 26.5137 57.5847C37.5334 57.5992 48.5531 57.5989 59.5729 57.6054C60.0026 57.6057 60.4323 57.6503 60.9259 57.7257C49.8282 57.785 38.6666 57.793 27.505 57.8005C26.5389 57.8012 25.5727 57.799 24.5144 57.792Z" fill="#CCCDD1"/>
<path d="M95.6772 39.8682C95.3884 40.0588 95.0504 40.1993 94.6402 40.3566C94.1221 39.9891 93.7865 38.259 94.0285 37.6078C94.1073 37.3961 94.1759 37.1806 94.2713 36.8906C94.6506 37.3725 95.0621 37.9046 95.3456 38.4978C95.5344 38.8927 95.5403 39.375 95.6772 39.8682Z" fill="#DA524B"/>
<path d="M8.60231 56.604C8.35489 56.7004 8.10748 56.7968 7.82881 56.9525C7.23166 56.6619 6.66574 56.3121 6.0686 55.9054C6.88687 55.8179 6.51876 55.3463 6.41522 54.8838C6.85893 54.8707 7.24977 54.9249 7.64061 54.9792C7.72783 55.0368 7.81505 55.0944 7.97747 55.2076C8.13475 55.3211 8.21684 55.379 8.32608 55.496C8.43676 55.6975 8.52027 55.84 8.60501 56.0601C8.60493 56.2932 8.60362 56.4486 8.60231 56.604Z" fill="#EEEEF0"/>
<path d="M94.9511 52.3027C94.9874 52.5692 95.0237 52.8356 95.124 53.1513C94.9392 53.7494 94.6903 54.2983 94.3463 54.9265C94.1557 55.0157 94.06 55.0256 93.9647 54.9514C93.8369 54.1014 93.7087 53.3355 93.6163 52.51C93.7868 52.4134 93.9215 52.3764 94.1309 52.3524C94.454 52.3445 94.7026 52.3236 94.9511 52.3027Z" fill="#EEEEF0"/>
<path d="M73.1277 57.7836C73.1654 57.7057 73.2944 57.6342 73.4807 57.5498C77.1191 57.5542 80.7003 57.5695 84.2814 57.5919C84.6764 57.5943 85.0711 57.6375 85.5266 57.7177C81.4645 57.7792 77.3417 57.7846 73.1277 57.7836Z" fill="#D6D6D9"/>
<path d="M93.9644 55.0352C94.06 55.0254 94.1556 55.0155 94.323 54.9971C94.3171 55.3693 94.2396 55.75 94.1056 56.1687C93.6513 56.2549 93.2534 56.3032 92.7564 56.2939C92.3442 55.0209 93.5402 55.4482 93.9644 55.0352Z" fill="#DA524B"/>
<path d="M67.6303 57.5107C67.8734 57.5418 68.0156 57.6035 68.1663 57.7251C66.0479 57.7889 63.921 57.7928 61.7013 57.787C62.4889 57.7203 63.3686 57.6443 64.2498 57.6108C65.3424 57.5692 66.4362 57.5629 67.6303 57.5107Z" fill="#CCCDD1"/>
<path d="M12.7051 57.7844C13.4165 57.7169 14.2196 57.6249 15.0237 57.6152C16.2356 57.6005 17.4481 57.6434 18.7217 57.7159C16.7878 57.779 14.7926 57.7879 12.7051 57.7844Z" fill="#DFE1E2"/>
<path d="M92.7219 37.0024C92.8116 37.0383 92.8066 37.0723 92.717 37.1899C91.2636 37.4489 89.8949 37.7748 88.5257 37.7772C69.2168 37.8119 49.9079 37.8026 30.5989 37.804C25.5791 37.8026 20.5592 37.8182 15.5394 37.7908C13.7252 37.7809 11.9106 37.6833 10.0986 37.5813C9.89343 37.5698 9.70449 37.2693 9.55481 37.0493C37.2768 36.9974 64.9519 36.999 92.7219 37.0024Z" fill="#F1F1F1"/>
<path d="M30.5994 37.8685C49.9079 37.8029 69.2169 37.8122 88.5258 37.7775C89.895 37.775 91.2637 37.4491 92.6984 37.2383C92.8437 40.9503 92.9387 44.6974 92.9914 48.4451C93.0045 49.3709 92.8801 50.2986 92.7968 51.372C92.7054 51.6801 92.636 51.8417 92.4757 52.0022C89.8986 51.934 87.412 51.8803 84.9266 51.7926C84.0151 51.7604 83.1064 51.6478 82.269 51.5349C83.5391 51.4706 84.7366 51.4424 85.9341 51.4159C87.4249 51.3829 87.4786 51.3403 87.7736 49.923C88.454 46.6542 88.435 43.3824 87.8051 40.1099C87.4778 38.4092 87.4727 38.4141 85.7683 38.3975C81.1402 38.3524 76.5122 38.2879 71.884 38.2622C69.0551 38.2465 66.2259 38.2882 63.306 38.2838C62.3457 38.2714 61.4763 38.2792 60.5268 38.2676C60.2289 38.2606 60.0111 38.2731 59.7015 38.2694C56.8055 38.2628 54.0014 38.2724 51.105 38.2649C48.7411 38.2568 46.4694 38.2658 44.1054 38.2585C42.3413 38.254 40.6696 38.2657 38.9058 38.2612C37.8075 38.257 36.8012 38.2691 35.703 38.2644C33.9409 38.2285 32.2706 38.2093 30.6004 38.1901C30.6002 38.1043 30.5999 38.0185 30.5994 37.8685Z" fill="#0055C7"/>
<path d="M52.8133 53.4751C60.7261 53.4666 68.6389 53.4549 76.5517 53.4506C81.1734 53.4481 85.7951 53.4573 90.585 53.4757C90.8376 54.0615 90.9222 54.6327 90.9395 55.2017C90.7834 55.1886 90.6946 55.1777 90.6068 55.0909C90.6412 54.5458 91.0923 53.8582 90.1611 53.8243C88.7056 53.7713 87.2443 53.7738 85.7913 53.8559C85.516 53.8715 85.2678 54.3664 85.0072 54.6401C85.2864 54.8271 85.5597 55.1648 85.8457 55.1758C87.3012 55.232 88.76 55.2037 90.1705 55.2789C88.2164 55.3581 86.3094 55.3634 84.4007 55.3248C84.3991 55.2809 84.3936 55.1933 84.4029 55.1251C84.4912 54.5826 84.5872 54.0416 83.8936 54.0178C81.3118 53.9293 78.7284 53.8443 76.1456 53.8437C75.2911 53.8435 75.0999 54.3148 75.3965 55.2479C75.3975 55.289 75.3976 55.3713 75.3188 55.3854C75.0274 55.3902 74.8148 55.381 74.6001 55.3266C74.598 55.2815 74.5918 55.1914 74.594 55.1064C74.5873 54.4682 74.7294 53.8118 73.8461 53.8111C71.0952 53.809 68.3437 53.7822 65.5938 53.835C64.6082 53.8539 64.4565 54.212 64.7973 55.2472C64.798 55.2891 64.7978 55.3728 64.7239 55.3871C64.5004 55.3906 64.351 55.3797 64.2007 55.3257C64.1999 55.2825 64.1973 55.1962 64.1981 55.108C64.3524 54.0794 63.9914 53.7568 63.0127 53.7846C60.6322 53.852 58.2483 53.7961 55.8659 53.8084C54.8621 53.8136 54.6609 54.1599 54.9991 55.2457C54.9991 55.2883 54.9988 55.3736 54.9169 55.3922C54.6752 55.8074 54.5154 56.204 54.3493 56.6161C50.6138 56.6161 46.8341 56.6161 43.0318 56.6161C43.0115 56.1665 42.9951 55.8039 42.9825 55.3513C43.0049 53.803 43.0049 53.8044 41.5892 53.805C38.5077 53.8064 35.4263 53.804 32.3448 53.8081C31.1 53.8097 30.9763 53.9981 31.3962 55.249C31.3971 55.2906 31.3979 55.3739 31.3191 55.3892C31.0276 55.3946 30.8148 55.3846 30.6005 55.3297C30.599 55.2847 30.5949 55.1949 30.5967 55.1091C30.5632 54.5895 30.7615 54.0343 30.0115 53.994C29.0843 53.944 28.1579 53.8085 27.2322 53.8174C23.5806 53.8528 19.9295 53.9331 16.2781 53.9907C15.1079 54.0092 15.0999 54.0116 15.4013 55.244C15.4004 55.2901 15.3985 55.3823 15.3066 55.3984C14.2783 55.4053 13.3419 55.3962 12.4699 55.3371C13.0628 55.2589 13.6015 55.2817 14.1157 55.1801C14.3619 55.1315 14.5616 54.8474 14.7824 54.6699C14.5852 54.4489 14.4058 54.0595 14.1877 54.0365C13.3363 53.9468 12.4672 53.9108 11.6164 53.9861C11.2658 54.0172 10.9446 54.3802 10.6022 54.5139C10.1552 53.2216 9.23584 54.0447 8.44468 53.7874C8.53698 54.4335 8.60501 54.9096 8.57932 55.3974C8.42335 55.4186 8.36109 55.428 8.29883 55.4374C8.21675 55.3795 8.13467 55.3215 8.02977 55.2178C7.97295 54.654 7.93895 54.136 8.01089 53.6026C8.11682 53.5873 8.19696 53.5423 8.19696 53.5423C8.54136 53.5397 8.88575 53.5371 9.31419 53.5154C14.7845 53.4871 20.1708 53.4749 25.5571 53.4694C33.7719 53.461 41.9867 53.4573 50.2655 53.5277C50.2203 53.6655 50.1112 53.7803 50.002 53.7803C49.2386 53.7807 49.0731 54.3007 49.2489 54.8422C49.3326 55.0999 49.8305 55.3384 50.1642 55.3757C50.8815 55.4557 51.6166 55.3618 52.3397 55.41C53.0795 55.4593 53.3029 55.0962 53.1864 54.4603C53.1241 54.1205 52.9415 53.8028 52.8133 53.4751ZM48.2919 55.2246C48.4681 53.982 48.324 53.8072 47.1078 53.8005C46.5089 53.7972 45.9098 53.7939 45.311 53.802C44.8867 53.8078 44.3575 53.722 44.4305 54.4078C44.483 54.9003 44.5465 55.431 45.2706 55.403C46.2326 55.3658 47.1957 55.3557 48.2919 55.2246Z" fill="#273038"/>
<path d="M27.6817 51.4982C27.58 51.3066 27.6345 51.0826 27.5476 50.9865C26.4693 49.7949 26.5787 48.2407 26.2656 46.8203C26.2072 46.555 26.2603 46.2209 26.3766 45.9721C26.5273 45.6498 26.9562 45.395 26.9821 45.0873C27.1223 43.4201 28.6226 42.0941 28.1631 40.2812C28.1088 40.0671 28.2429 39.8019 28.3016 39.5633C28.3946 39.1853 28.4975 38.8097 28.5953 38.3583C29.203 38.2625 29.8117 38.2416 30.5103 38.2051C32.2706 38.2088 33.9408 38.228 35.7006 38.3311C35.3017 38.9231 34.8699 39.507 34.3126 39.9227C33.303 40.6758 32.0535 41.1507 32.0163 42.7419C32.0062 43.1732 31.6017 43.6438 31.2788 44.0084C30.7508 44.6047 30.4736 45.1684 30.8702 45.9668C31.4394 47.1127 31.1923 47.8806 30.2007 48.7323C29.9968 48.9074 29.879 49.3594 29.9418 49.6332C30.0862 50.2619 30.3663 50.8594 30.5913 51.4695C29.6516 51.4881 28.7119 51.5066 27.6817 51.4982Z" fill="#0055C7"/>
<path d="M22.7099 38.2734C22.9529 38.5302 23.1514 38.7523 23.2501 39.0124C23.3713 39.3317 23.4548 39.6801 23.4734 40.0203C23.5096 40.6827 23.4855 41.3482 23.4931 42.0124C23.5065 43.176 24.1455 44.4664 22.778 45.3475C22.6064 45.458 22.4674 45.7171 22.4331 45.9269C22.1396 47.7193 21.8738 49.5162 21.6003 51.3849C20.591 51.478 19.5813 51.4979 18.4813 51.4897C17.9 50.4322 17.6959 49.4846 18.2936 48.3255C18.6442 47.6454 18.3625 46.6496 18.4051 45.7979C18.4706 44.4884 18.7243 43.2527 19.871 42.3955C20.0466 42.2643 20.2113 42.041 20.2609 41.8318C20.5271 40.7097 20.7552 39.5786 20.9954 38.3725C21.5366 38.2814 22.0789 38.2684 22.7099 38.2734Z" fill="#0055C7"/>
<path d="M8.17766 53.5123C8.19704 53.5423 8.1169 53.5873 8.07095 53.5883C8.02501 53.5893 8.01383 53.4936 8.02791 53.4476C8.08703 53.4195 8.1258 53.4464 8.17766 53.5123Z" fill="#D6D6D9"/>
<path d="M42.9788 55.4406C42.9952 55.8031 43.0115 56.1657 43.0319 56.6154C46.8342 56.6154 50.6138 56.6154 54.3494 56.6154C54.5154 56.2032 54.6752 55.8066 55.0097 55.4065C58.19 55.3913 61.1958 55.3797 64.2015 55.3682C64.351 55.379 64.5005 55.3898 64.8165 55.4015C66.1188 55.3923 67.2545 55.3823 68.4588 55.3871C68.6203 55.3929 68.7131 55.3839 68.8527 55.3854C68.8996 55.396 68.9936 55.3765 69.0848 55.391C69.8529 55.3957 70.5298 55.3859 71.299 55.3884C72.4617 55.3908 73.532 55.3809 74.6022 55.371C74.8149 55.3802 75.0275 55.3894 75.4117 55.3997C78.523 55.3899 81.4627 55.3789 84.4024 55.3679C86.3094 55.3626 88.2165 55.3573 90.2358 55.2758C90.434 55.1884 90.5199 55.1772 90.6058 55.166C90.6946 55.1769 90.7834 55.1879 90.979 55.2545C91.0562 55.7362 91.0265 56.1622 90.9969 56.5882C90.6055 56.656 90.2148 56.778 89.8225 56.7835C84.6369 56.8558 79.4511 56.9117 74.1776 56.9709C73.7625 56.6877 73.4797 56.2713 73.1005 56.1457C71.4242 55.5904 69.7229 55.6443 68.0559 56.2151C67.7846 56.308 67.5879 56.6188 67.3409 56.9014C53.4845 56.9788 39.6439 56.9837 25.7108 56.9896C25.257 56.6994 24.939 56.2748 24.5265 56.1404C22.9157 55.6157 21.2693 55.664 19.6558 56.1522C19.3287 56.2512 19.0783 56.6036 18.7768 56.9112C15.787 56.9221 12.8129 56.8657 9.83929 56.7936C9.48031 56.7849 9.1234 56.6908 8.68389 56.62C8.60356 56.4483 8.60487 56.2929 8.67185 56.0569C8.82133 55.997 8.90513 56.0176 8.99355 56.0306C8.99816 56.023 8.98544 56.0103 9.02579 56.0833C9.6856 56.1066 10.3051 56.0568 10.9485 55.9402C11.0499 55.7114 11.1272 55.5492 11.2522 55.3973C11.3 55.4075 11.3955 55.3876 11.4781 55.4072C11.8424 55.4134 12.124 55.3998 12.4055 55.3863C13.3419 55.3954 14.2783 55.4045 15.3992 55.4143C16.9195 55.4028 18.2554 55.3906 19.6719 55.3956C19.9708 55.4013 20.1892 55.3896 20.5 55.391C23.9289 55.3939 27.2655 55.3839 30.602 55.3738C30.8148 55.3838 31.0276 55.3938 31.4117 55.4054C33.5202 55.3996 35.4574 55.3922 37.4698 55.4019C37.6981 55.408 37.8512 55.3969 38.0969 55.3989C39.4563 55.3991 40.7232 55.3863 42.0713 55.389C42.428 55.4165 42.7034 55.4285 42.9788 55.4406Z" fill="#0055C7"/>
<path d="M94.9693 52.2293C94.7025 52.3242 94.454 52.3451 94.112 52.2709C94.067 51.3287 94.1154 50.4815 94.1638 49.6342C94.5213 49.5758 94.8788 49.5174 95.2363 49.459C95.2606 49.7745 95.3353 50.0959 95.2985 50.4041C95.2284 50.9918 95.0947 51.572 94.9693 52.2293Z" fill="#DA524B"/>
<path d="M94.1209 49.6885C94.1154 50.4809 94.0669 51.3282 94.0373 52.2574C93.9215 52.3764 93.7868 52.4134 93.561 52.5345C93.2471 52.6123 93.0243 52.606 92.8015 52.5998C92.7413 52.4409 92.6811 52.282 92.5938 52.063C92.636 51.8412 92.7053 51.6796 92.8065 51.4581C93.3801 51.6267 93.6923 51.4418 93.81 50.8737C93.8885 50.4946 93.9879 50.1199 94.1209 49.6885Z" fill="#4D575F"/>
<path d="M7.60923 54.9182C7.24971 54.9253 6.85886 54.871 6.38195 54.8183C6.13096 54.4843 5.96605 54.1486 5.80115 53.813C5.89632 53.7588 5.99148 53.7046 6.08665 53.6504C6.58374 54.0525 7.08083 54.4547 7.60923 54.9182Z" fill="#D6D6D9"/>
<path d="M92.7082 52.6001C93.0244 52.6057 93.2472 52.6119 93.5253 52.5938C93.7087 53.3352 93.8369 54.1011 93.9647 54.951C93.5403 55.448 92.3442 55.0207 92.6832 56.3127C92.1956 56.4582 91.682 56.5269 91.0827 56.5919C91.0266 56.1623 91.0562 55.7363 91.0463 55.2568C90.9222 54.632 90.8377 54.0607 90.6777 53.4584C90.3368 53.1974 90.0714 52.9674 89.8059 52.6761C90.7422 52.6101 91.6786 52.6055 92.7082 52.6001Z" fill="#CCCDD1"/>
<path d="M20.5606 57.2404C20.5245 57.0026 20.4889 56.7146 20.5993 56.6387C21.2407 56.1977 23.2715 56.3789 24.1092 57.0013C22.9434 57.7746 21.806 57.7028 20.5606 57.2404Z" fill="#CCCDD1"/>
<path d="M70.9671 57.5949C70.3593 57.5215 69.8321 57.4717 69.3203 57.3545C69.1717 57.3205 69.0181 57.1106 68.9629 56.9486C68.9347 56.8659 69.0934 56.6677 69.2124 56.5954C69.9031 56.1759 71.9353 56.3811 72.7976 57.1032C72.1156 57.2947 71.5846 57.4438 70.9671 57.5949Z" fill="#CCCDD1"/>
<path d="M8.98896 56.039C8.90515 56.0184 8.82135 55.9978 8.67064 55.98C8.52024 55.8405 8.43673 55.698 8.32605 55.4965C8.36114 55.428 8.4234 55.4186 8.62408 55.4396C8.83798 55.6597 8.91347 55.8494 8.98896 56.039Z" fill="#30373D"/>
<path d="M82.2691 51.534C75.3569 51.5642 68.5173 51.5581 61.6777 51.5497C61.2465 51.5492 60.8154 51.5305 60.3131 51.4353C60.5789 51.0088 61.0263 50.7236 61.2341 50.3162C62.2316 48.3611 61.4865 46.5672 59.4713 45.6937C59.0616 45.5161 58.8074 44.9796 58.4816 44.6086C58.8116 44.3868 59.1392 44.1611 59.4736 43.9461C59.5552 43.8936 59.6582 43.8727 59.7533 43.8432C61.7009 43.2388 61.7001 43.239 61.4653 41.2519C61.4605 41.2117 61.5453 41.161 61.5884 41.1152C62.0433 41.1647 62.7434 40.9179 62.7325 40.8809C62.4352 39.8731 63.0649 39.1272 63.397 38.3031C66.226 38.2872 69.0552 38.2456 71.8841 38.2613C76.5123 38.287 81.1403 38.3514 85.7683 38.3965C87.4728 38.4131 87.4779 38.4083 87.8052 40.109C88.435 43.3815 88.4541 46.6532 87.7737 49.9221C87.4787 51.3393 87.425 51.382 85.9342 51.415C84.7367 51.4415 83.5392 51.4697 82.2691 51.534Z" fill="#0055C7"/>
<path d="M63.3059 38.2824C63.0648 39.1267 62.435 39.8727 62.7323 40.8804C62.7433 40.9174 62.0432 41.1643 61.5882 41.1147C61.5452 41.1605 61.4604 41.2113 61.4651 41.2514C61.6999 43.2386 61.7007 43.2383 59.7531 43.8427C59.6581 43.8722 59.555 43.8931 59.4734 43.9456C59.139 44.1606 58.8115 44.3863 58.4814 44.6081C58.8073 44.9791 59.0615 45.5156 59.4712 45.6932C61.4864 46.5667 62.2314 48.3606 61.234 50.3157C61.0261 50.7231 60.5788 51.0083 60.2236 51.4077C59.796 51.4808 59.3866 51.4961 58.8833 51.4259C58.3812 50.7382 58.0754 50.9865 57.7966 51.4599C56.6609 51.4778 55.5251 51.4956 54.2969 51.4133C54.053 50.8938 53.9017 50.4745 53.7504 50.0552C53.5648 50.4913 53.3786 50.9272 53.1949 51.3641C53.183 51.3926 53.1907 51.4293 53.1893 51.4621C50.386 51.4825 47.5826 51.5029 44.6896 51.4296C44.9117 51.0157 45.1682 50.5335 45.5453 50.4048C46.8784 49.9498 47.3463 49.3065 47.2309 47.8817C47.208 47.6001 47.2765 47.2737 47.4085 47.0237C47.8957 46.1002 48.4365 45.2051 48.9353 44.2875C49.0581 44.0615 49.2242 43.7484 49.1567 43.547C48.5682 41.7915 49.7235 40.7547 50.6715 39.5947C50.9563 39.2463 51.0279 38.7235 51.1971 38.2806C54.0013 38.271 56.8055 38.2613 59.7041 38.3453C59.8696 38.9623 59.9272 39.4879 60.0155 40.0083C60.096 40.4825 60.2432 40.9033 60.7465 40.7239C60.6958 39.8387 60.6513 39.0621 60.6068 38.2856C61.4762 38.2778 62.3456 38.27 63.3059 38.2824Z" fill="#0055C7"/>
<path d="M51.105 38.2649C51.0279 38.7249 50.9564 39.2477 50.6716 39.5962C49.7236 40.7562 48.5682 41.7929 49.1567 43.5485C49.2243 43.7499 49.0582 44.063 48.9353 44.2889C48.4365 45.2065 47.8957 46.1016 47.4085 47.0251C47.2766 47.2752 47.2081 47.6015 47.2309 47.8831C47.3464 49.308 46.8784 49.9513 45.5454 50.4062C45.1682 50.5349 44.9117 51.0172 44.5993 51.4059C43.4589 51.4907 42.3192 51.507 41.0893 51.4176C40.9991 51.113 41.0431 50.9017 40.9919 50.7168C40.6975 49.6525 40.8498 48.7176 41.6342 47.8842C41.84 47.6655 42.0501 47.1898 41.9486 46.9873C41.4595 46.0119 41.8539 45.2004 42.1383 44.2746C42.5188 43.0358 42.5958 41.7063 42.847 40.4244C42.9739 39.7766 42.9373 38.9932 43.8798 38.8238C44.0143 38.7996 44.0931 38.4655 44.1977 38.2748C46.4694 38.2658 48.7411 38.2568 51.105 38.2649Z" fill="#0055C7"/>
<path d="M44.1052 38.2588C44.0929 38.4658 44.0141 38.7999 43.8796 38.8241C42.9371 38.9935 42.9737 39.7769 42.8468 40.4247C42.5957 41.7066 42.5186 43.0361 42.1381 44.2748C41.8538 45.2007 41.4593 46.0121 41.9484 46.9876C42.0499 47.19 41.8399 47.6658 41.6341 47.8845C40.8496 48.7179 40.6973 49.6527 40.9918 50.7171C41.0429 50.902 40.999 51.1133 40.9993 51.3915C39.0592 51.4857 37.1187 51.5007 35.0821 51.4174C34.5059 50.207 35.1455 49.3657 35.6044 48.4403C35.8202 48.0052 35.9448 47.2959 35.7345 46.9231C35.1881 45.9541 35.1931 45.4191 36.044 44.6845C36.3303 44.4373 36.6655 44.1171 36.7389 43.7784C36.9176 42.9544 37.3473 42.402 38.0896 42.051C38.5804 41.8189 38.7392 41.4903 38.3331 41.0395C37.786 40.4321 37.9873 39.937 38.4795 39.3894C38.7409 39.0986 38.8305 38.6533 38.9977 38.2777C40.6694 38.266 42.3411 38.2543 44.1052 38.2588Z" fill="#0055C7"/>
<path d="M38.9058 38.2605C38.8307 38.6523 38.7411 39.0976 38.4797 39.3885C37.9875 39.936 37.7862 40.4311 38.3332 41.0385C38.7393 41.4894 38.5805 41.8179 38.0898 42.05C37.3474 42.401 36.9177 42.9534 36.7391 43.7774C36.6656 44.1161 36.3305 44.4363 36.0441 44.6835C35.1933 45.4181 35.1883 45.9531 35.7347 46.9221C35.945 47.295 35.8204 48.0043 35.6046 48.4394C35.1457 49.3647 34.5061 50.206 34.9928 51.3884C33.5907 51.4802 32.182 51.5018 30.6823 51.4963C30.3663 50.8592 30.0862 50.2617 29.9419 49.633C29.879 49.3592 29.9968 48.9072 30.2008 48.7321C31.1924 47.8804 31.4394 47.1125 30.8702 45.9666C30.4736 45.1682 30.7508 44.6045 31.2789 44.0082C31.6017 43.6436 32.0063 43.173 32.0164 42.7417C32.0536 41.1505 33.303 40.6756 34.3127 39.9225C34.87 39.5068 35.3018 38.9229 35.7925 38.3477C36.8012 38.2684 37.8075 38.2563 38.9058 38.2605Z" fill="#0055C7"/>
<path d="M60.5267 38.2672C60.6513 39.0633 60.6957 39.8398 60.7465 40.7251C60.2432 40.9044 60.0959 40.4836 60.0154 40.0094C59.9271 39.489 59.8696 38.9634 59.7959 38.3626C60.011 38.2728 60.2288 38.2603 60.5267 38.2672Z" fill="#0055C7"/>
<path d="M53.2716 51.4912C53.1908 51.4298 53.1831 51.3931 53.195 51.3646C53.3787 50.9277 53.5649 50.4918 53.7505 50.0557C53.9018 50.475 54.0531 50.8943 54.2076 51.3886C53.9252 51.4822 53.6395 51.5009 53.2716 51.4912Z" fill="#818C9A"/>
<path d="M57.8777 51.4907C58.0753 50.9883 58.3811 50.74 58.7993 51.403C58.5258 51.4825 58.2423 51.5011 57.8777 51.4907Z" fill="#818C9A"/>
<path d="M82.1965 51.5709C83.1065 51.6468 84.0152 51.7595 84.9267 51.7916C87.4121 51.8794 89.8987 51.9331 92.5029 52.0615C92.6812 52.2815 92.7415 52.4404 92.7084 52.6C91.6787 52.6054 90.7423 52.61 89.7127 52.6098C62.8815 52.6064 36.1437 52.6077 9.40585 52.6089C9.21641 52.5364 9.02697 52.4639 8.83752 52.3913C8.84192 52.302 8.84632 52.2128 8.85072 52.1235C9.17534 52.081 9.49965 52.0047 9.82464 52.0017C11.8111 51.983 13.7977 51.9857 15.784 51.9622C15.9119 51.9607 16.0378 51.8 16.2713 51.6258C17.049 51.5123 17.7201 51.4865 18.4815 51.4889C19.5815 51.4972 20.5912 51.4772 21.6903 51.4854C23.7169 51.4993 25.6541 51.485 27.6819 51.4977C28.7121 51.5062 29.6518 51.4876 30.6824 51.4961C32.1821 51.5015 33.5908 51.48 35.089 51.4865C37.1189 51.4995 39.0594 51.4845 41.0897 51.4958C42.3193 51.506 43.459 51.4898 44.6891 51.4987C47.5828 51.5034 50.3861 51.483 53.2716 51.4911C53.6395 51.5009 53.9252 51.4822 54.3002 51.4887C55.5253 51.4961 56.661 51.4783 57.8779 51.4894C58.2425 51.4998 58.526 51.4812 58.8934 51.4872C59.3868 51.4966 59.7962 51.4813 60.2949 51.4931C60.8154 51.5305 61.2466 51.5492 61.6778 51.5497C68.5173 51.5581 75.3569 51.5643 82.1965 51.5709Z" fill="#0055C7"/>
<path d="M18.3913 51.4613C17.7201 51.4871 17.049 51.513 16.2868 51.5555C13.8653 51.2069 13.8458 51.2106 13.3728 48.7243C12.7859 45.6394 12.8544 42.5775 13.7867 39.5551C14.0255 38.7809 14.4014 38.3037 15.3245 38.3187C17.1526 38.3484 18.9823 38.2841 20.9039 38.3546C20.7554 39.5785 20.5273 40.7096 20.2611 41.8317C20.2115 42.0409 20.0467 42.2641 19.8712 42.3954C18.7244 43.2526 18.4707 44.4882 18.4053 45.7977C18.3627 46.6495 18.6444 47.6452 18.2937 48.3253C17.6961 49.4844 17.9002 50.4321 18.3913 51.4613Z" fill="#0055C7"/>
<path d="M9.40389 52.6833C36.1437 52.6083 62.8815 52.607 89.7128 52.6718C90.0715 52.9679 90.3369 53.1979 90.5097 53.4445C85.7953 53.4571 81.1736 53.4479 76.5519 53.4504C68.6391 53.4547 60.7263 53.4664 52.7225 53.4529C51.8829 53.4463 51.1343 53.4618 50.2937 53.4643C41.9869 53.4571 33.7721 53.4608 25.5572 53.4692C20.171 53.4747 14.7847 53.4869 9.39844 53.4962C9.39959 53.2498 9.40075 53.0034 9.40389 52.6833Z" fill="#0055C7"/>
<path d="M7.65517 52.6843C6.31101 52.859 6.09775 52.7374 5.8059 51.4401C5.03901 48.0313 5.005 44.5945 5.51983 41.1496C5.6518 40.2666 5.84467 39.3896 6.06404 38.5236C6.27357 37.6966 6.8041 37.2067 7.78966 37.2345C7.65632 37.6484 7.44215 38.0541 7.15764 38.5931C7.98528 38.7866 8.73404 39.0268 9.50092 39.1239C10.3717 39.2341 10.5345 39.5244 10.4878 40.4648C10.3417 43.4022 10.3712 46.3519 10.444 49.2941C10.463 50.062 10.2819 50.3706 9.57539 50.5321C8.74753 50.7212 7.93855 50.9929 6.99603 51.2651C7.24745 51.7979 7.43969 52.2054 7.65517 52.6843Z" fill="#0055C7"/>
<path d="M27.5913 51.4708C25.654 51.4851 23.7168 51.4994 21.6897 51.4123C21.8739 49.5155 22.1397 47.7186 22.4332 45.9262C22.4675 45.7164 22.6065 45.4573 22.7781 45.3468C24.1456 44.4657 23.5066 43.1753 23.4932 42.0116C23.4856 41.3475 23.5097 40.682 23.4735 40.0196C23.4549 39.6794 23.3714 39.3309 23.2502 39.0117C23.1515 38.7516 22.953 38.5294 22.7987 38.2905C24.6694 38.2771 26.54 38.2638 28.5035 38.3416C28.4976 38.8093 28.3946 39.1849 28.3017 39.5629C28.243 39.8015 28.1089 40.0667 28.1632 40.2808C28.6227 42.0937 27.1224 43.4197 26.9822 45.0869C26.9563 45.3946 26.5274 45.6494 26.3767 45.9717C26.2604 46.2205 26.2072 46.5546 26.2657 46.8199C26.5787 48.2403 26.4694 49.7945 27.5477 50.9861C27.6346 51.0822 27.5801 51.3062 27.5913 51.4708Z" fill="#0055C7"/>
<path d="M52.7224 53.4525C52.9416 53.8023 53.1242 54.12 53.1864 54.4598C53.303 55.0957 53.0796 55.4587 52.3398 55.4094C51.6167 55.3612 50.8816 55.4552 50.1642 55.3751C49.8306 55.3379 49.3327 55.0993 49.249 54.8417C49.0732 54.3001 49.2387 53.7802 50.0021 53.7798C50.1113 53.7797 50.2204 53.665 50.3575 53.5401C51.1342 53.4614 51.8828 53.446 52.7224 53.4525Z" fill="#3E4A55"/>
<path d="M20.4076 55.3782C20.1892 55.3898 19.9709 55.4014 19.6058 55.3476C18.1068 55.2539 16.7546 55.2256 15.4024 55.1973C15.1 54.011 15.108 54.0086 16.2781 53.9901C19.9296 53.9325 23.5807 53.8522 27.2323 53.8168C28.158 53.8078 29.0844 53.9434 30.0116 53.9934C30.7616 54.0337 30.5633 54.5889 30.5036 55.1104C27.4585 55.1987 24.5084 55.1929 21.5584 55.2078C21.1745 55.2098 20.7912 55.3188 20.4076 55.3782Z" fill="#3E4A55"/>
<path d="M38.0043 55.3863C37.8512 55.3974 37.6981 55.4084 37.4047 55.3518C35.308 55.2585 33.3517 55.2328 31.3953 55.2071C30.9763 53.9978 31.1 53.8094 32.3449 53.8078C35.4263 53.8037 38.5078 53.8061 41.5892 53.8047C43.0049 53.8041 43.0049 53.8027 42.9826 55.351C42.7034 55.429 42.428 55.417 42.005 55.3417C40.5729 55.3145 39.2886 55.3504 38.0043 55.3863Z" fill="#3E4A55"/>
<path d="M68.8059 55.3749C68.7131 55.3839 68.6203 55.393 68.3923 55.3398C67.1036 55.2533 65.9501 55.229 64.7966 55.2047C64.4566 54.2113 64.6082 53.8532 65.5938 53.8343C68.3438 53.7815 71.0953 53.8083 73.8462 53.8104C74.7295 53.8111 74.5874 54.4675 74.5016 55.1079C73.3401 55.2554 72.2734 55.3158 71.2067 55.3762C70.5298 55.386 69.8529 55.3958 69.0659 55.3662C68.8946 55.2919 68.8446 55.3079 68.8059 55.3749Z" fill="#3E4A55"/>
<path d="M54.9991 55.2023C54.6609 54.1592 54.8622 53.8129 55.866 53.8077C58.2484 53.7954 60.6323 53.8513 63.0128 53.7839C63.9915 53.7561 64.3525 54.0787 64.1048 55.1091C61.0067 55.2 58.0029 55.2012 54.9991 55.2023Z" fill="#3E4A55"/>
<path d="M75.3955 55.2068C75.1 54.3148 75.2911 53.8436 76.1457 53.8438C78.7285 53.8443 81.3118 53.9294 83.8936 54.0179C84.5872 54.0416 84.4913 54.5827 84.3099 55.127C81.2703 55.2004 78.3329 55.2036 75.3955 55.2068Z" fill="#3E4A55"/>
<path d="M90.6069 55.0904C90.5199 55.1774 90.434 55.1886 90.2829 55.2021C88.76 55.2031 87.3013 55.2315 85.8458 55.1753C85.5598 55.1642 85.2864 54.8266 85.0072 54.6396C85.2679 54.3658 85.516 53.8709 85.7913 53.8554C87.2443 53.7733 88.7057 53.7707 90.1611 53.8237C91.0924 53.8577 90.6412 54.5452 90.6069 55.0904Z" fill="#3E4A55"/>
<path d="M48.2251 55.2792C47.1957 55.3556 46.2326 55.3657 45.2706 55.4029C44.5465 55.431 44.483 54.9002 44.4305 54.4078C44.3575 53.7219 44.8867 53.8078 45.311 53.802C45.9098 53.7938 46.5089 53.7971 47.1078 53.8004C48.324 53.8071 48.4682 53.9819 48.2251 55.2792Z" fill="#3E4A55"/>
<path d="M12.47 55.3371C12.124 55.4006 11.8424 55.4142 11.4578 55.384C11.2957 55.3048 11.2456 55.3207 11.2046 55.3879C11.1273 55.55 11.05 55.7121 10.8918 55.942C10.7356 56.0011 10.6602 55.9926 10.5894 55.8974C10.5993 55.4046 10.6048 54.9985 10.6102 54.5923C10.9447 54.3803 11.2659 54.0172 11.6164 53.9861C12.4673 53.9108 13.3364 53.9468 14.1878 54.0365C14.4059 54.0595 14.5853 54.4489 14.7825 54.67C14.5617 54.8474 14.362 55.1315 14.1158 55.1801C13.6016 55.2817 13.0629 55.2589 12.47 55.3371Z" fill="#3E4A55"/>
<path d="M10.6022 54.5139C10.6047 54.9984 10.5993 55.4046 10.5014 55.9026C9.93444 56.0001 9.45994 56.0056 8.98543 56.0111C8.98543 56.0111 8.99815 56.0238 8.99354 56.0314C8.91345 55.8493 8.83796 55.6597 8.71777 55.4278C8.60504 54.9096 8.53701 54.4335 8.4447 53.7874C9.23587 54.0447 10.1552 53.2216 10.6022 54.5139Z" fill="#596978"/>
<path d="M20.5 55.3913C20.7912 55.3189 21.1745 55.2099 21.5583 55.208C24.5084 55.193 27.4585 55.1989 30.5018 55.1963C30.595 55.1944 30.5991 55.2843 30.6006 55.3292C27.2655 55.3842 23.929 55.3942 20.5 55.3913Z" fill="#343A42"/>
<path d="M54.9991 55.2451C58.0029 55.2013 61.0067 55.2001 64.1039 55.1973C64.1973 55.1956 64.2 55.2819 64.2008 55.3251C61.1958 55.3799 58.1901 55.3914 55.0916 55.388C54.9989 55.373 54.9992 55.2877 54.9991 55.2451Z" fill="#30373D"/>
<path d="M75.3965 55.248C78.3329 55.2037 81.2702 55.2005 84.3006 55.1953C84.3936 55.1934 84.3991 55.2811 84.4007 55.3249C81.4627 55.3798 78.523 55.3907 75.4904 55.3866C75.3976 55.3714 75.3975 55.2891 75.3965 55.248Z" fill="#343A42"/>
<path d="M31.3962 55.2487C33.3517 55.2327 35.308 55.2584 37.3295 55.3346C35.4574 55.3926 33.5202 55.4 31.4905 55.3905C31.3979 55.3736 31.3971 55.2903 31.3962 55.2487Z" fill="#343A42"/>
<path d="M15.4013 55.2434C16.7545 55.2256 18.1067 55.2539 19.5251 55.3304C18.2554 55.3908 16.9195 55.403 15.491 55.3985C15.3985 55.3817 15.4004 55.2895 15.4013 55.2434Z" fill="#343A42"/>
<path d="M64.7974 55.2467C65.9501 55.2291 67.1036 55.2534 68.3236 55.3251C67.2545 55.3825 66.1188 55.3926 64.8905 55.3875C64.7979 55.3723 64.7981 55.2886 64.7974 55.2467Z" fill="#343A42"/>
<path d="M71.2991 55.389C72.2734 55.3163 73.3401 55.256 74.4993 55.1934C74.5918 55.1912 74.5981 55.2813 74.6002 55.3265C73.532 55.3815 72.4617 55.3914 71.2991 55.389Z" fill="#343A42"/>
<path d="M38.0969 55.3996C39.2886 55.3506 40.573 55.3147 41.9237 55.3265C40.7232 55.387 39.4564 55.3998 38.0969 55.3996Z" fill="#343A42"/>
<path d="M9.02576 56.0841C9.45991 56.0056 9.93441 56.0001 10.4968 55.9893C10.6601 55.9925 10.7355 56.0011 10.8677 56.0087C10.305 56.0575 9.68556 56.1073 9.02576 56.0841Z" fill="#30373D"/>
<path d="M11.2523 55.398C11.2456 55.3206 11.2957 55.3048 11.3752 55.3642C11.3955 55.3883 11.3 55.4082 11.2523 55.398Z" fill="#273038"/>
<path d="M68.8528 55.3855C68.8447 55.3079 68.8946 55.2919 68.9747 55.3517C68.9937 55.3766 68.8996 55.3961 68.8528 55.3855Z" fill="#343A42"/>
</g>
<defs>
<clipPath id="clip0_202_1197">
<rect width="100" height="100" fill="white"/>
</clipPath>
</defs>
</svg>
