<svg width="200" height="200" viewBox="0 0 200 200" fill="none" xmlns="http://www.w3.org/2000/svg">
<g clip-path="url(#clip0_153_1202)">
<path d="M19.1963 72.4702C32.7867 72.445 46.377 72.4024 59.9674 72.398C96.6795 72.386 133.392 72.3514 170.104 72.4289C175.766 72.4408 181.427 72.9969 187.033 73.4699C186.529 73.7618 186.081 73.885 185.444 74.0046C129.904 73.9977 74.5534 73.9945 19.2018 73.8392C19.1991 73.2814 19.1977 72.8758 19.1963 72.4702Z" fill="#D6D6D9"/>
<path d="M19.0397 72.4951C19.1981 72.8756 19.1995 73.2813 19.1086 73.9461C19.4092 74.5383 19.7871 75.1392 20.1975 75.1623C23.8214 75.3662 27.4506 75.5614 31.0791 75.5812C41.1186 75.6359 51.1584 75.6047 61.1988 75.7361C61.2 76.0362 61.2005 76.2077 61.0209 76.4102C59.6236 76.4832 58.4063 76.5251 57.0052 76.5344C53.08 76.5284 49.3388 76.5551 45.4201 76.5461C44.1581 76.5363 43.0735 76.5621 41.8057 76.5525C37.9644 76.5679 34.3051 76.6964 30.649 76.6371C28.8027 76.6071 28.0509 77.5615 27.5733 79.1099C25.7087 85.1546 25.5718 91.2784 26.7455 97.4483C27.6914 102.421 27.7305 102.413 32.3603 103.286C32.0756 103.601 31.8236 103.922 31.5679 103.925C27.5952 103.972 23.622 103.967 19.6492 104.004C18.9992 104.01 18.3506 104.163 17.7013 104.248C17.6925 104.426 17.6837 104.605 17.6749 104.784C18.0538 104.929 18.4327 105.074 18.8076 105.366C18.8014 106.007 18.7991 106.499 18.6286 107.03C17.7717 107.073 17.083 107.079 16.3554 107.024C16.2517 106.892 16.1742 106.838 16.044 106.684C15.7882 106.213 15.5726 105.861 15.3105 105.366C14.8795 104.409 14.495 103.594 13.9922 102.528C15.8772 101.984 17.4952 101.44 19.1509 101.062C20.564 100.739 20.9261 100.122 20.8881 98.5858C20.7425 92.7015 20.6835 86.8021 20.9757 80.9273C21.0692 79.0465 20.7436 78.4659 19.002 78.2454C17.4682 78.0513 15.9707 77.5709 14.3154 77.1838C14.8844 76.1058 15.3128 75.2944 15.832 74.4087C15.9483 73.9567 15.9737 73.5789 15.9992 73.2011C16.9604 72.9741 17.9216 72.7472 19.0397 72.4951Z" fill="#DFE1E2"/>
<path d="M123.217 115.554C122.907 115.577 122.596 115.6 122.005 115.486C120.865 115.301 120.005 115.211 119.146 115.211C97.1064 115.198 75.0669 115.198 53.0275 115.169C52.278 115.168 51.5288 114.885 50.7979 114.622C50.9565 114.335 51.0967 114.158 51.4219 113.98C79.2881 113.968 106.969 113.958 134.723 114.057C135.017 114.43 135.24 114.695 135.261 115.021C132.873 115.125 130.685 115.138 128.5 115.221C126.737 115.288 124.978 115.44 123.217 115.554Z" fill="#A4A5A8"/>
<path d="M185.634 74.0084C186.081 73.8851 186.529 73.7619 187.123 73.6211C187.6 73.6 187.929 73.5965 188.379 73.7637C188.352 74.362 188.215 74.793 188.057 75.2166C187.573 76.5188 188.244 79.979 189.151 80.9379C189.175 85.8976 189.3 90.6708 189.141 95.4347C189.077 97.3682 189.684 98.2703 191.541 98.4182C191.251 101.038 190.961 103.659 190.395 106.242C190.047 105.672 189.975 105.139 189.939 104.458C190.19 103.143 190.457 101.983 190.597 100.807C190.671 100.191 190.521 99.5481 190.473 98.9172C189.758 99.034 189.043 99.1509 188.242 99.3772C187.976 100.24 187.777 100.99 187.62 101.748C187.385 102.884 186.76 103.254 185.657 102.623C185.76 100.597 186.009 98.7412 185.983 96.8896C185.877 89.3941 185.687 81.8999 185.566 74.309C185.613 74.1446 185.623 74.0765 185.634 74.0084Z" fill="#464E57"/>
<path d="M15.3567 105.509C15.5724 105.861 15.788 106.213 16.0156 106.776C16.0276 106.987 16.0499 107.178 15.9299 107.207C15.8779 108.271 15.9459 109.307 15.9092 110.324C15.63 110.189 15.4555 110.074 15.2185 109.836C14.1617 108.909 13.1675 108.104 12.1733 107.3C11.983 107.409 11.7926 107.517 11.6023 107.625C11.9321 108.297 12.2619 108.968 12.6582 109.771C13.0374 110.693 13.7736 111.636 12.0746 111.697C11.6543 110.695 11.0089 109.726 10.8497 108.684C9.70515 101.191 8.63241 93.6696 9.24716 86.0679C9.5103 82.814 10.136 79.5668 10.8804 76.3828C11.3318 74.4519 12.4109 72.7836 14.9633 73.4547C15.1783 73.5112 15.4617 73.3076 15.8561 73.2129C15.9735 73.5788 15.9481 73.9566 15.6701 74.3924C13.6081 74.4109 12.5471 75.3907 12.128 77.0449C11.6893 78.7768 11.3035 80.5308 11.0396 82.2968C10.0099 89.1865 10.0779 96.0602 11.6117 102.878C12.1954 105.472 12.622 105.715 15.3567 105.509Z" fill="#30373D"/>
<path d="M188.098 112.414C186.779 113.207 185.546 114.377 184.119 114.705C182.029 115.185 179.8 115.058 177.63 115.197C175.597 115.327 173.565 115.466 171.232 115.462C170.142 115.274 169.353 115.188 168.563 115.183C161.4 115.139 154.238 115.108 147.16 114.97C147.555 114.558 147.867 114.25 148.355 113.943C158.902 113.824 169.274 113.712 179.645 113.568C180.43 113.557 181.211 113.313 182.165 113.185C183.364 113.055 184.391 112.917 185.565 112.742C186.507 112.607 187.303 112.51 188.098 112.414Z" fill="#A4A5A8"/>
<path d="M191.581 98.2549C189.684 98.2701 189.077 97.368 189.141 95.4345C189.299 90.6707 189.175 85.8975 189.295 80.9041C190.101 80.3992 190.777 80.1183 191.453 79.8374C191.774 83.9076 192.228 87.9735 192.358 92.0498C192.422 94.0539 191.885 96.0771 191.581 98.2549Z" fill="#343A42"/>
<path d="M51.2369 113.982C51.0967 114.159 50.9564 114.335 50.6656 114.666C49.9583 115.071 49.4014 115.322 48.8446 115.572C45.5461 116.673 42.2828 116.528 38.8645 115.15C38.2932 114.659 37.9076 114.313 37.5537 113.823C38.1568 113.208 38.6576 112.503 39.3117 112.305C42.5389 111.329 45.8315 111.232 49.0532 112.282C49.8782 112.551 50.5141 113.4 51.2369 113.982ZM41.2573 114.576C43.6121 115.405 45.8869 115.549 48.2185 114.002C46.5431 112.757 42.4815 112.395 41.1986 113.277C40.978 113.429 41.0491 114.005 41.2573 114.576Z" fill="#30373D"/>
<path d="M148.179 113.941C147.867 114.25 147.555 114.558 147.045 114.996C146.589 115.268 146.331 115.411 146.073 115.554C142.926 116.49 139.774 116.554 136.466 115.465C136.031 115.206 135.747 115.083 135.462 114.96C135.24 114.695 135.017 114.43 134.754 113.912C135.176 113.238 135.569 112.617 136.112 112.431C139.446 111.29 142.848 111.182 146.201 112.292C146.959 112.544 147.525 113.376 148.179 113.941ZM142.107 115.186C143.169 114.888 144.231 114.59 145.595 114.207C143.87 112.763 139.806 112.352 138.424 113.191C138.186 113.336 137.869 113.732 137.925 113.898C138.036 114.222 138.343 114.642 138.64 114.71C139.664 114.944 140.718 115.044 142.107 115.186Z" fill="#30373D"/>
<path d="M37.5217 113.967C37.9073 114.313 38.2929 114.659 38.7568 115.11C38.5051 115.342 38.1751 115.469 37.5827 115.459C34.896 115.286 32.4709 115.2 30.0472 115.23C28.439 115.249 26.8327 115.433 25.2255 115.543C22.0582 115.134 18.8908 114.725 15.7217 114.051C16.2147 113.594 16.7095 113.401 17.3676 113.241C18.2466 113.382 18.9605 113.57 19.6784 113.588C25.6257 113.732 31.5738 113.845 37.5217 113.967Z" fill="#A4A5A8"/>
<path d="M49.0288 115.584C49.4013 115.321 49.9582 115.071 50.6472 114.777C51.5286 114.885 52.2778 115.168 53.0273 115.169C75.0668 115.198 97.1063 115.198 119.146 115.211C120.005 115.211 120.865 115.301 121.852 115.451C99.6565 115.57 77.3333 115.586 55.01 115.601C53.0777 115.602 51.1454 115.598 49.0288 115.584Z" fill="#CCCDD1"/>
<path d="M191.355 79.7369C190.777 80.1181 190.101 80.399 189.281 80.7136C188.245 79.9786 187.573 76.5184 188.057 75.2162C188.215 74.7927 188.352 74.3616 188.543 73.7817C189.301 74.7456 190.125 75.8097 190.692 76.9962C191.069 77.7859 191.081 78.7504 191.355 79.7369Z" fill="#DA524B"/>
<path d="M17.2046 113.208C16.7098 113.401 16.215 113.594 15.6576 113.905C14.4633 113.324 13.3315 112.625 12.1372 111.811C13.7737 111.636 13.0375 110.693 12.8304 109.768C13.7179 109.742 14.4995 109.85 15.2812 109.959C15.4557 110.074 15.6301 110.189 15.9549 110.416C16.2695 110.643 16.4337 110.758 16.6522 110.992C16.8735 111.396 17.0405 111.68 17.21 112.121C17.2099 112.587 17.2072 112.898 17.2046 113.208Z" fill="#EEEEF0"/>
<path d="M189.902 104.605C189.975 105.138 190.047 105.671 190.248 106.303C189.878 107.499 189.38 108.597 188.692 109.853C188.311 110.031 188.12 110.051 187.929 109.903C187.673 108.203 187.417 106.671 187.232 105.02C187.573 104.827 187.843 104.753 188.261 104.705C188.908 104.689 189.405 104.647 189.902 104.605Z" fill="#EEEEF0"/>
<path d="M146.255 115.567C146.331 115.411 146.589 115.268 146.961 115.099C154.238 115.108 161.401 115.139 168.563 115.183C169.353 115.188 170.142 115.274 171.053 115.435C162.929 115.558 154.683 115.569 146.255 115.567Z" fill="#D6D6D9"/>
<path d="M187.929 110.071C188.12 110.051 188.312 110.031 188.646 109.995C188.635 110.739 188.479 111.501 188.211 112.338C187.303 112.51 186.507 112.607 185.513 112.588C184.689 110.042 187.081 110.897 187.929 110.071Z" fill="#DA524B"/>
<path d="M135.261 115.021C135.747 115.083 136.031 115.206 136.333 115.45C132.096 115.577 127.842 115.585 123.403 115.574C124.978 115.44 126.737 115.288 128.5 115.221C130.685 115.138 132.873 115.125 135.261 115.021Z" fill="#CCCDD1"/>
<path d="M25.4102 115.568C26.8329 115.433 28.4392 115.249 30.0475 115.23C32.4712 115.201 34.8962 115.286 37.4435 115.431C33.5757 115.558 29.5851 115.575 25.4102 115.568Z" fill="#DFE1E2"/>
<path d="M185.444 74.0044C185.624 74.0761 185.613 74.1442 185.434 74.3793C182.527 74.8972 179.79 75.549 177.052 75.554C138.434 75.6233 99.816 75.6047 61.1981 75.6074C51.1584 75.6047 41.1185 75.6358 31.0791 75.5811C27.4506 75.5614 23.8214 75.3661 20.1975 75.1622C19.7871 75.1391 19.4092 74.5382 19.1099 74.0981C74.5538 73.9943 129.904 73.9975 185.444 74.0044Z" fill="#F1F1F1"/>
<path d="M61.1987 75.736C99.8159 75.6047 138.434 75.6233 177.052 75.554C179.79 75.5491 182.527 74.8973 185.397 74.4756C185.687 81.8996 185.877 89.3938 185.983 96.8892C186.009 98.7408 185.76 100.596 185.594 102.743C185.411 103.359 185.272 103.682 184.951 104.004C179.797 103.867 174.824 103.76 169.853 103.584C168.03 103.52 166.213 103.295 164.538 103.069C167.078 102.94 169.473 102.884 171.868 102.831C174.85 102.765 174.957 102.68 175.547 99.8451C176.908 93.3074 176.87 86.7639 175.61 80.2189C174.956 76.8175 174.945 76.8272 171.537 76.7939C162.28 76.7037 153.024 76.5749 143.768 76.5235C138.11 76.4921 132.452 76.5754 126.612 76.5667C124.691 76.5418 122.953 76.5574 121.054 76.5342C120.458 76.5203 120.022 76.5452 119.403 76.5377C113.611 76.5245 108.003 76.5438 102.21 76.5288C97.4823 76.5125 92.9388 76.5306 88.2107 76.5161C84.6826 76.507 81.3391 76.5304 77.8117 76.5213C75.6151 76.513 73.6024 76.5373 71.406 76.5279C67.8817 76.4559 64.5413 76.4175 61.2008 76.3791C61.2003 76.2076 61.1999 76.0361 61.1987 75.736Z" fill="#E3E4E5"/>
<path d="M164.393 103.143C166.213 103.295 168.03 103.52 169.853 103.584C174.824 103.76 179.797 103.867 185.006 104.124C185.362 104.564 185.483 104.882 185.416 105.201C183.357 105.212 181.484 105.221 179.425 105.221C125.763 105.214 72.2871 105.216 18.8115 105.219C18.4326 105.074 18.0537 104.929 17.6748 104.784C17.6836 104.605 17.6924 104.426 17.7012 104.248C18.3504 104.163 18.999 104.01 19.649 104.004C23.6219 103.967 27.5951 103.972 31.5678 103.925C31.8235 103.922 32.0754 103.601 32.5423 103.252C34.0977 103.026 35.44 102.974 36.9627 102.979C39.1627 102.995 41.1821 102.955 43.3803 102.972C47.4335 103 51.308 102.971 55.3635 102.996C57.4239 103.013 59.3033 102.976 61.3646 102.993C64.364 103.004 67.1814 102.961 70.1778 102.974C74.2377 103 78.1186 102.97 82.1792 102.993C84.6383 103.013 86.9178 102.981 89.378 102.998C95.1654 103.008 100.772 102.967 106.543 102.983C107.279 103.003 107.85 102.965 108.6 102.978C111.05 102.993 113.322 102.958 115.756 102.98C116.485 103.001 117.052 102.963 117.787 102.975C118.773 102.994 119.592 102.964 120.59 102.987C121.631 103.062 122.493 103.099 123.355 103.1C137.034 103.117 150.714 103.129 164.393 103.143Z" fill="#EEEEF0"/>
<path d="M36.7821 102.922C35.4398 102.974 34.0975 103.025 32.5731 103.11C27.7301 102.413 27.6911 102.421 26.7451 97.4482C25.5714 91.2782 25.7084 85.1545 27.5729 79.1097C28.0505 77.5613 28.8023 76.6069 30.6486 76.6369C34.3048 76.6963 37.964 76.5677 41.8074 76.7087C41.5103 79.1565 41.054 81.4187 40.5217 83.6628C40.4225 84.0812 40.093 84.5278 39.7418 84.7903C37.4484 86.5047 36.941 88.976 36.81 91.595C36.7249 93.2985 37.2883 95.29 36.587 96.6502C35.3917 98.9684 35.7999 100.864 36.7821 102.922Z" fill="#546373"/>
<path d="M18.8073 105.367C72.2869 105.217 125.763 105.214 179.425 105.344C180.143 105.936 180.673 106.396 181.019 106.889C171.59 106.914 162.347 106.896 153.103 106.901C137.278 106.909 121.452 106.933 105.445 106.906C103.765 106.893 102.268 106.924 100.587 106.929C83.9734 106.914 67.5437 106.922 51.114 106.938C40.3415 106.949 29.5689 106.974 18.7964 106.992C18.7987 106.5 18.801 106.007 18.8073 105.367Z" fill="#D6D6D9"/>
<path d="M15.3101 105.366C12.6218 105.715 12.1953 105.472 11.6116 102.878C10.0778 96.0601 10.0098 89.1865 11.0394 82.2968C11.3033 80.5308 11.6891 78.7768 12.1278 77.0448C12.5469 75.3907 13.608 74.4109 15.5791 74.4666C15.3124 75.2943 14.8841 76.1057 14.315 77.1837C15.9703 77.5708 17.4678 78.0512 19.0016 78.2453C20.7432 78.4658 21.0688 79.0464 20.9753 80.9272C20.6832 86.802 20.7422 92.7014 20.8877 98.5857C20.9257 100.121 20.5636 100.739 19.1505 101.062C17.4948 101.44 15.8769 101.983 13.9918 102.528C14.4947 103.593 14.8791 104.408 15.3101 105.366Z" fill="#4D575F"/>
<path d="M55.1826 102.942C51.3081 102.971 47.4336 103 43.3794 102.826C43.7478 99.0319 44.2794 95.4381 44.8663 91.8534C44.935 91.4337 45.2131 90.9156 45.5561 90.6946C48.2913 88.9324 47.0132 86.3516 46.9865 84.0242C46.9713 82.696 47.0194 81.365 46.947 80.0402C46.9098 79.3597 46.7428 78.6629 46.5004 78.0243C46.3029 77.5042 45.906 77.0599 45.5975 76.5819C49.3387 76.5553 53.08 76.5286 57.007 76.6842C56.9952 77.6197 56.7893 78.3708 56.6034 79.1269C56.486 79.6041 56.2178 80.1345 56.3263 80.5627C57.2453 84.1884 54.2449 86.8404 53.9644 90.1748C53.9126 90.7902 53.0548 91.2998 52.7533 91.9444C52.5207 92.4419 52.4145 93.1101 52.5314 93.6408C53.1575 96.4817 52.9388 99.5899 55.0954 101.973C55.2692 102.165 55.1602 102.613 55.1826 102.942Z" fill="#5E6D7C"/>
<path d="M105.627 106.95C121.452 106.933 137.278 106.909 153.104 106.901C162.347 106.896 171.591 106.914 181.17 106.951C181.676 108.122 181.845 109.265 181.879 110.403C181.567 110.377 181.389 110.355 181.214 110.181C181.283 109.091 182.185 107.716 180.322 107.648C177.412 107.542 174.489 107.547 171.583 107.711C171.032 107.742 170.536 108.732 170.015 109.28C170.573 109.654 171.12 110.329 171.692 110.351C174.603 110.464 177.52 110.407 180.341 110.557C176.433 110.716 172.619 110.726 168.802 110.649C168.798 110.561 168.787 110.386 168.806 110.25C168.983 109.165 169.175 108.083 167.787 108.035C162.624 107.858 157.457 107.688 152.292 107.687C150.582 107.687 150.2 108.629 150.793 110.495C150.795 110.578 150.796 110.742 150.638 110.77C150.055 110.78 149.63 110.762 149.2 110.653C149.196 110.563 149.184 110.382 149.188 110.212C149.175 108.936 149.459 107.623 147.693 107.622C142.191 107.617 136.688 107.564 131.188 107.669C129.217 107.707 128.913 108.423 129.595 110.494C129.596 110.578 129.596 110.745 129.448 110.774C129.001 110.781 128.702 110.759 128.402 110.651C128.4 110.565 128.395 110.392 128.396 110.216C128.705 108.158 127.983 107.513 126.026 107.569C121.265 107.704 116.497 107.592 111.732 107.616C109.725 107.627 109.322 108.319 109.998 110.491C109.998 110.576 109.998 110.747 109.834 110.784C109.351 111.614 109.031 112.407 108.699 113.232C101.228 113.232 93.6685 113.232 86.0639 113.232C86.0233 112.332 85.9905 111.607 85.9653 110.702C86.01 107.606 86.01 107.608 83.1787 107.61C77.0157 107.612 70.8528 107.607 64.6899 107.616C62.2002 107.619 61.9528 107.996 62.7926 110.498C62.7944 110.581 62.796 110.747 62.6385 110.778C62.0555 110.789 61.6298 110.769 61.2013 110.659C61.1983 110.569 61.19 110.389 61.1937 110.218C61.1266 109.178 61.5232 108.068 60.0232 107.987C58.1689 107.888 56.3161 107.616 54.4647 107.634C47.1615 107.705 39.8592 107.866 32.5564 107.981C30.216 108.018 30.2 108.023 30.8029 110.487C30.8011 110.58 30.7973 110.764 30.6135 110.796C28.5569 110.81 26.6841 110.792 24.94 110.674C26.1259 110.517 27.2033 110.563 28.2316 110.36C28.7241 110.263 29.1235 109.694 29.5651 109.339C29.1707 108.897 28.8118 108.119 28.3757 108.073C26.6729 107.893 24.9347 107.821 23.2329 107.972C22.5318 108.034 21.8895 108.76 21.2046 109.027C20.3107 106.443 18.4719 108.089 16.8896 107.574C17.0742 108.866 17.2103 109.819 17.1589 110.794C16.8469 110.837 16.7224 110.855 16.5979 110.874C16.4337 110.758 16.2696 110.643 16.0598 110.435C15.9461 109.307 15.8782 108.271 16.022 107.205C16.2339 107.174 16.3942 107.084 16.3942 107.084C17.083 107.079 17.7717 107.074 18.6286 107.03C29.5693 106.974 40.3418 106.949 51.1143 106.938C67.544 106.922 83.9737 106.914 100.531 107.055C100.441 107.331 100.223 107.56 100.004 107.56C98.4775 107.561 98.1465 108.601 98.4981 109.684C98.6654 110.199 99.6612 110.676 100.329 110.751C101.763 110.911 103.233 110.723 104.68 110.819C106.159 110.918 106.606 110.192 106.373 108.92C106.248 108.241 105.883 107.605 105.627 106.95ZM96.584 110.449C96.9365 107.963 96.6483 107.614 94.2159 107.601C93.018 107.594 91.8199 107.587 90.6222 107.604C89.7736 107.615 88.7152 107.443 88.8613 108.815C88.9662 109.8 89.0932 110.862 90.5414 110.806C92.4655 110.731 94.3917 110.711 96.584 110.449Z" fill="#273038"/>
<path d="M55.3634 102.996C55.16 102.613 55.269 102.165 55.0952 101.973C52.9386 99.5898 53.1573 96.4815 52.5313 93.6406C52.4143 93.1099 52.5205 92.4417 52.7532 91.9442C53.0546 91.2996 53.9124 90.79 53.9642 90.1746C54.2447 86.8403 57.2452 84.1882 56.3262 80.5625C56.2176 80.1343 56.4859 79.6039 56.6032 79.1267C56.7891 78.3706 56.995 77.6195 57.1907 76.7167C58.4061 76.5251 59.6234 76.4831 61.0207 76.4102C64.5412 76.4175 67.8817 76.4559 71.4012 76.6622C70.6035 77.8461 69.7398 79.014 68.6252 79.8454C66.606 81.3516 64.107 82.3015 64.0326 85.4838C64.0124 86.3465 63.2034 87.2876 62.5577 88.0168C61.5016 89.2094 60.9471 90.3367 61.7403 91.9336C62.8787 94.2254 62.3847 95.7613 60.4015 97.4645C59.9935 97.8149 59.7579 98.7188 59.8836 99.2664C60.1723 100.524 60.7326 101.719 61.1826 102.939C59.3032 102.976 57.4238 103.013 55.3634 102.996Z" fill="#657282"/>
<path d="M45.4199 76.5462C45.9058 77.0598 46.3027 77.5042 46.5002 78.0243C46.7426 78.6628 46.9096 79.3597 46.9468 80.0402C47.0192 81.3649 46.9711 82.696 46.9863 84.0242C47.013 86.3515 48.2911 88.9323 45.5559 90.6946C45.2129 90.9156 44.9348 91.4337 44.8661 91.8534C44.2792 95.4381 43.7476 99.0319 43.2005 102.769C41.182 102.955 39.1626 102.995 36.9626 102.979C35.8 100.864 35.3918 98.9687 36.5871 96.6504C37.2884 95.2903 36.725 93.2988 36.8102 91.5953C36.9411 88.9762 37.4485 86.505 39.742 84.7905C40.0931 84.5281 40.4226 84.0815 40.5219 83.6631C41.0542 81.4189 41.5104 79.1567 41.9908 76.7444C43.0733 76.5623 44.1579 76.5364 45.4199 76.5462Z" fill="#596978"/>
<path d="M16.3553 107.024C16.3941 107.084 16.2338 107.174 16.1419 107.176C16.05 107.178 16.0277 106.987 16.0558 106.895C16.1741 106.838 16.2516 106.892 16.3553 107.024Z" fill="#D6D6D9"/>
<path d="M85.9575 110.882C85.9903 111.607 86.0231 112.332 86.0638 113.232C93.6684 113.232 101.228 113.232 108.699 113.232C109.031 112.407 109.35 111.614 110.019 110.814C116.38 110.784 122.392 110.76 128.403 110.737C128.702 110.759 129.001 110.781 129.633 110.804C132.238 110.786 134.509 110.766 136.918 110.775C137.241 110.787 137.426 110.769 137.705 110.772C137.799 110.793 137.987 110.754 138.17 110.783C139.706 110.792 141.06 110.773 142.598 110.778C144.923 110.783 147.064 110.763 149.204 110.743C149.63 110.761 150.055 110.78 150.823 110.8C157.046 110.781 162.925 110.759 168.805 110.737C172.619 110.726 176.433 110.716 180.472 110.553C180.868 110.378 181.04 110.355 181.212 110.333C181.389 110.355 181.567 110.377 181.958 110.51C182.112 111.473 182.053 112.325 181.994 113.177C181.211 113.313 180.43 113.557 179.645 113.568C169.274 113.713 158.902 113.824 148.355 113.943C147.525 113.376 146.959 112.544 146.201 112.292C142.848 111.182 139.446 111.29 136.112 112.431C135.569 112.617 135.176 113.239 134.682 113.804C106.969 113.959 79.2878 113.968 51.4217 113.98C50.5139 113.4 49.878 112.551 49.053 112.282C45.8313 111.232 42.5387 111.329 39.3115 112.305C38.6574 112.503 38.1566 113.208 37.5535 113.823C31.574 113.845 25.6259 113.732 19.6786 113.588C18.9606 113.571 18.2468 113.383 17.3678 113.241C17.2071 112.898 17.2097 112.587 17.3437 112.115C17.6427 111.995 17.8103 112.036 17.9871 112.062C17.9963 112.047 17.9709 112.022 18.0516 112.168C19.3712 112.214 20.6101 112.115 21.8971 111.881C22.0998 111.424 22.2544 111.099 22.5045 110.796C22.5999 110.816 22.7909 110.776 22.9563 110.815C23.6847 110.828 24.2479 110.801 24.8111 110.774C26.6839 110.792 28.5567 110.81 30.7983 110.83C33.839 110.807 36.5108 110.782 39.3438 110.792C39.9416 110.804 40.3784 110.78 40.9999 110.783C47.8579 110.789 54.531 110.769 61.204 110.749C61.6297 110.769 62.0553 110.789 62.8234 110.812C67.0403 110.8 70.9147 110.785 74.9396 110.805C75.3963 110.817 75.7024 110.795 76.1938 110.799C78.9127 110.799 81.4464 110.774 84.1427 110.779C84.856 110.834 85.4068 110.858 85.9575 110.882Z" fill="#D6D6D9"/>
<path d="M189.939 104.458C189.405 104.647 188.908 104.689 188.224 104.541C188.134 102.656 188.231 100.962 188.328 99.2675C189.043 99.1507 189.758 99.0338 190.473 98.917C190.521 99.5479 190.671 100.191 190.597 100.807C190.457 101.983 190.19 103.143 189.939 104.458Z" fill="#DA524B"/>
<path d="M188.242 99.377C188.231 100.962 188.134 102.656 188.075 104.515C187.843 104.753 187.574 104.827 187.122 105.069C186.494 105.225 186.049 105.212 185.603 105.2C185.483 104.882 185.362 104.564 185.188 104.126C185.272 103.682 185.411 103.359 185.613 102.916C186.76 103.253 187.385 102.884 187.62 101.747C187.777 100.989 187.976 100.24 188.242 99.377Z" fill="#4D575F"/>
<path d="M15.2187 109.836C14.4997 109.85 13.718 109.742 12.7641 109.636C12.2622 108.968 11.9324 108.297 11.6025 107.625C11.7929 107.517 11.9832 107.409 12.1735 107.3C13.1677 108.105 14.1619 108.909 15.2187 109.836Z" fill="#D6D6D9"/>
<path d="M185.416 105.201C186.049 105.212 186.494 105.225 187.051 105.188C187.417 106.671 187.674 108.203 187.929 109.903C187.081 110.897 184.688 110.042 185.366 112.626C184.391 112.917 183.364 113.055 182.165 113.185C182.053 112.326 182.112 111.474 182.093 110.515C181.844 109.265 181.675 108.122 181.355 106.918C180.674 106.396 180.143 105.936 179.612 105.353C181.484 105.221 183.357 105.212 185.416 105.201Z" fill="#CCCDD1"/>
<path d="M41.121 114.48C41.0488 114.005 40.9776 113.429 41.1983 113.277C42.4812 112.395 46.5428 112.757 48.2182 114.002C45.8866 115.549 43.6118 115.405 41.121 114.48Z" fill="#CCCDD1"/>
<path d="M141.934 115.19C140.718 115.044 139.664 114.944 138.64 114.71C138.343 114.641 138.036 114.222 137.926 113.898C137.869 113.732 138.187 113.336 138.424 113.191C139.806 112.352 143.87 112.763 145.595 114.207C144.231 114.59 143.169 114.888 141.934 115.19Z" fill="#CCCDD1"/>
<path d="M17.9777 112.078C17.8101 112.036 17.6425 111.995 17.341 111.96C17.0402 111.681 16.8732 111.396 16.6519 110.992C16.722 110.856 16.8466 110.837 17.2479 110.879C17.6757 111.319 17.8267 111.698 17.9777 112.078Z" fill="#30373D"/>
<path d="M164.538 103.069C150.714 103.129 137.034 103.117 123.355 103.1C122.493 103.099 121.63 103.062 120.626 102.872C121.158 102.019 122.052 101.448 122.468 100.633C124.463 96.7232 122.973 93.1353 118.942 91.3884C118.123 91.0332 117.615 89.9602 116.963 89.2181C117.623 88.7746 118.278 88.3232 118.947 87.8931C119.11 87.7882 119.316 87.7464 119.506 87.6874C123.401 86.4785 123.4 86.479 122.93 82.5048C122.921 82.4245 123.09 82.3229 123.177 82.2313C124.086 82.3305 125.487 81.8368 125.465 81.7627C124.87 79.7473 126.13 78.2553 126.794 76.6072C132.452 76.5755 138.11 76.4922 143.768 76.5236C153.024 76.5749 162.28 76.7038 171.536 76.794C174.945 76.8272 174.956 76.8176 175.61 80.219C176.87 86.764 176.908 93.3075 175.547 99.8451C174.957 102.68 174.85 102.765 171.868 102.831C169.473 102.884 167.078 102.94 164.538 103.069Z" fill="#818C9A"/>
<path d="M126.612 76.5668C126.13 78.2553 124.87 79.7473 125.465 81.7627C125.487 81.8368 124.087 82.3305 123.177 82.2313C123.091 82.323 122.921 82.4245 122.931 82.5048C123.4 86.4791 123.402 86.4785 119.506 87.6874C119.316 87.7464 119.11 87.7882 118.947 87.8932C118.278 88.3232 117.623 88.7746 116.963 89.2181C117.615 89.9602 118.123 91.0332 118.943 91.3884C122.973 93.1353 124.463 96.7232 122.468 100.633C122.053 101.448 121.158 102.019 120.447 102.817C119.592 102.964 118.773 102.994 117.767 102.854C116.763 101.478 116.151 101.975 115.593 102.922C113.322 102.957 111.051 102.993 108.594 102.829C108.106 101.79 107.804 100.951 107.501 100.112C107.13 100.985 106.757 101.856 106.39 102.73C106.366 102.787 106.382 102.861 106.379 102.926C100.772 102.967 95.1655 103.008 89.3794 102.861C89.8236 102.033 90.3366 101.069 91.0909 100.811C93.757 99.9016 94.6929 98.615 94.462 95.7654C94.4163 95.2022 94.5533 94.5494 94.8172 94.0493C95.7916 92.2023 96.8732 90.4122 97.8708 88.5769C98.1165 88.125 98.4487 87.4988 98.3136 87.096C97.1366 83.5849 99.4472 81.5114 101.343 79.1914C101.913 78.4945 102.056 77.449 102.395 76.5631C108.003 76.5439 113.611 76.5246 119.409 76.6926C119.739 77.9265 119.855 78.9778 120.031 80.0186C120.192 80.967 120.487 81.8085 121.493 81.4499C121.392 79.6794 121.303 78.1262 121.214 76.5731C122.953 76.5575 124.692 76.5419 126.612 76.5668Z" fill="#7A8795"/>
<path d="M102.21 76.5288C102.056 77.4489 101.913 78.4944 101.343 79.1914C99.4469 81.5114 97.1362 83.5848 98.3133 87.096C98.4483 87.4987 98.1161 88.1249 97.8704 88.5768C96.8728 90.4121 95.7912 92.2022 94.8168 94.0492C94.5529 94.5493 94.4159 95.2021 94.4616 95.7653C94.6925 98.6149 93.7566 99.9016 91.0905 100.811C90.3362 101.069 89.8232 102.033 89.1983 102.811C86.9176 102.981 84.6381 103.013 82.1783 102.834C81.998 102.225 82.0859 101.803 81.9836 101.433C81.3947 99.3039 81.6993 97.4343 83.2682 95.7674C83.6798 95.3301 84.0999 94.3785 83.8969 93.9736C82.9187 92.0227 83.7076 90.3998 84.2764 88.5481C85.0373 86.0706 85.1914 83.4117 85.6937 80.8478C85.9476 79.5522 85.8744 77.9854 87.7593 77.6466C88.0283 77.5983 88.186 76.93 88.3951 76.5486C92.9386 76.5306 97.482 76.5126 102.21 76.5288Z" fill="#748190"/>
<path d="M88.2107 76.5162C88.1861 76.9301 88.0285 77.5984 87.7594 77.6467C85.8745 77.9855 85.9477 79.5523 85.6939 80.8479C85.1916 83.4118 85.0375 86.0707 84.2765 88.5482C83.7078 90.3999 82.9189 92.0228 83.8971 93.9737C84.1001 94.3786 83.68 95.3301 83.2684 95.7675C81.6995 97.4344 81.3949 99.304 81.9838 101.433C82.0861 101.803 81.9982 102.225 81.9988 102.781C78.1186 102.97 74.2376 103 70.1645 102.833C69.0121 100.413 70.2913 98.7299 71.2091 96.8792C71.6407 96.009 71.8899 94.5904 71.4693 93.8446C70.3765 91.9067 70.3865 90.8366 72.0882 89.3675C72.6609 88.8731 73.3312 88.2328 73.478 87.5553C73.8354 85.9072 74.6948 84.8026 76.1795 84.1005C77.161 83.6364 77.4786 82.9792 76.6664 82.0775C75.5723 80.8628 75.9749 79.8725 76.9593 78.7774C77.4821 78.1957 77.6613 77.3051 77.9956 76.554C81.3391 76.5305 84.6825 76.5071 88.2107 76.5162Z" fill="#6F7C8C"/>
<path d="M77.8114 76.5214C77.6611 77.3051 77.482 78.1957 76.9591 78.7774C75.9747 79.8725 75.5721 80.8628 76.6662 82.0775C77.4784 82.9792 77.1608 83.6364 76.1793 84.1005C74.6946 84.8026 73.8352 85.9072 73.4779 87.5553C73.331 88.2328 72.6607 88.8731 72.088 89.3675C70.3863 90.8366 70.3763 91.9067 71.4691 93.8446C71.8897 94.5904 71.6406 96.009 71.209 96.8792C70.2912 98.7299 69.0119 100.413 69.9854 102.777C67.1812 102.961 64.3638 103.004 61.3644 102.993C60.7324 101.719 60.1722 100.524 59.8835 99.2665C59.7578 98.7189 59.9934 97.815 60.4013 97.4646C62.3845 95.7614 62.8786 94.2255 61.7402 91.9337C60.947 90.3368 61.5014 89.2095 62.5575 88.0169C63.2032 87.2877 64.0123 86.3466 64.0325 85.4839C64.1069 82.3016 66.6058 81.3516 68.6251 79.8455C69.7397 79.0141 70.6033 77.8462 71.5848 76.6958C73.6022 76.5374 75.6148 76.5131 77.8114 76.5214Z" fill="#6A7787"/>
<path d="M121.053 76.5345C121.303 78.1265 121.391 79.6796 121.493 81.4501C120.486 81.8088 120.192 80.9672 120.031 80.0189C119.854 78.978 119.739 77.9268 119.592 76.7253C120.022 76.5455 120.458 76.5206 121.053 76.5345Z" fill="#818C9A"/>
<path d="M106.543 102.983C106.381 102.861 106.366 102.787 106.39 102.73C106.757 101.856 107.13 100.985 107.501 100.112C107.803 100.951 108.106 101.79 108.415 102.778C107.85 102.965 107.279 103.003 106.543 102.983Z" fill="#818C9A"/>
<path d="M115.755 102.98C116.151 101.975 116.762 101.479 117.599 102.805C117.052 102.964 116.485 103.001 115.755 102.98Z" fill="#818C9A"/>
<path d="M105.445 106.906C105.883 107.605 106.248 108.241 106.373 108.92C106.606 110.192 106.159 110.918 104.679 110.819C103.233 110.723 101.763 110.911 100.328 110.751C99.6609 110.676 98.6651 110.199 98.4978 109.684C98.1461 108.601 98.4771 107.561 100.004 107.56C100.222 107.56 100.44 107.33 100.715 107.081C102.268 106.923 103.765 106.892 105.445 106.906Z" fill="#3E4A55"/>
<path d="M40.815 110.757C40.3782 110.78 39.9415 110.803 39.2113 110.696C36.2134 110.508 33.5089 110.452 30.8045 110.395C30.1997 108.023 30.2157 108.018 32.556 107.981C39.8589 107.865 47.1612 107.705 54.4644 107.634C56.3157 107.616 58.1686 107.887 60.0229 107.987C61.5229 108.068 61.1263 109.178 61.007 110.221C54.9169 110.398 49.0166 110.386 43.1165 110.416C42.3488 110.42 41.5821 110.638 40.815 110.757Z" fill="#3E4A55"/>
<path d="M76.0088 110.773C75.7027 110.795 75.3965 110.817 74.8097 110.704C70.6163 110.517 66.7036 110.466 62.7909 110.414C61.9529 107.996 62.2003 107.619 64.69 107.616C70.8529 107.607 77.0158 107.612 83.1787 107.609C86.01 107.608 86.01 107.605 85.9654 110.702C85.407 110.858 84.8563 110.834 84.0102 110.683C81.1461 110.629 78.5774 110.701 76.0088 110.773Z" fill="#3E4A55"/>
<path d="M137.612 110.751C137.426 110.769 137.241 110.787 136.785 110.681C134.207 110.507 131.9 110.459 129.593 110.41C128.913 108.424 129.216 107.707 131.188 107.67C136.688 107.564 142.191 107.618 147.692 107.622C149.459 107.623 149.175 108.936 149.003 110.217C146.68 110.512 144.547 110.633 142.413 110.753C141.06 110.773 139.706 110.793 138.132 110.733C137.789 110.585 137.689 110.617 137.612 110.751Z" fill="#3E4A55"/>
<path d="M109.998 110.406C109.322 108.319 109.724 107.627 111.732 107.616C116.497 107.592 121.265 107.704 126.026 107.569C127.983 107.513 128.705 108.158 128.21 110.219C122.013 110.401 116.006 110.403 109.998 110.406Z" fill="#3E4A55"/>
<path d="M150.791 110.413C150.2 108.629 150.583 107.687 152.292 107.687C157.457 107.688 162.624 107.858 167.788 108.035C169.175 108.083 168.983 109.165 168.62 110.254C162.541 110.4 156.666 110.407 150.791 110.413Z" fill="#3E4A55"/>
<path d="M181.213 110.181C181.04 110.355 180.868 110.378 180.565 110.405C177.52 110.407 174.602 110.463 171.691 110.351C171.119 110.329 170.573 109.654 170.014 109.28C170.535 108.732 171.032 107.742 171.582 107.711C174.488 107.547 177.411 107.542 180.322 107.648C182.184 107.716 181.282 109.091 181.213 110.181Z" fill="#3E4A55"/>
<path d="M96.4505 110.558C94.3917 110.711 92.4655 110.731 90.5414 110.805C89.0932 110.861 88.9662 109.8 88.8613 108.815C88.7152 107.443 89.7736 107.615 90.6222 107.603C91.8199 107.587 93.018 107.594 94.2159 107.6C96.6483 107.614 96.9366 107.963 96.4505 110.558Z" fill="#3E4A55"/>
<path d="M24.9399 110.674C24.248 110.801 23.6849 110.828 22.9157 110.767C22.5914 110.609 22.4913 110.641 22.4092 110.775C22.2546 111.1 22.0999 111.424 21.7836 111.884C21.4712 112.002 21.3204 111.985 21.1787 111.794C21.1986 110.809 21.2095 109.996 21.2204 109.184C21.8895 108.76 22.5318 108.034 23.2329 107.972C24.9347 107.821 26.6729 107.893 28.3756 108.073C28.8118 108.119 29.1707 108.897 29.565 109.339C29.1235 109.694 28.724 110.263 28.2316 110.36C27.2033 110.563 26.1259 110.517 24.9399 110.674Z" fill="#3E4A55"/>
<path d="M21.2046 109.027C21.2096 109.996 21.1987 110.809 21.003 111.805C19.8691 112 18.9201 112.011 17.9711 112.022C17.9711 112.022 17.9965 112.047 17.9873 112.062C17.8271 111.698 17.6762 111.319 17.4358 110.855C17.2103 109.819 17.0743 108.866 16.8896 107.574C18.472 108.089 20.3107 106.443 21.2046 109.027Z" fill="#596978"/>
<path d="M41 110.783C41.5823 110.638 42.3489 110.42 43.1167 110.416C49.0168 110.387 54.917 110.398 61.0036 110.393C61.1899 110.389 61.1982 110.569 61.2012 110.659C54.531 110.769 47.8579 110.789 41 110.783Z" fill="#343A42"/>
<path d="M109.998 110.491C116.006 110.403 122.013 110.401 128.208 110.395C128.394 110.392 128.4 110.564 128.401 110.651C122.391 110.76 116.38 110.783 110.183 110.777C109.997 110.747 109.998 110.576 109.998 110.491Z" fill="#30373D"/>
<path d="M150.793 110.495C156.666 110.406 162.54 110.4 168.601 110.39C168.787 110.386 168.798 110.561 168.801 110.649C162.925 110.759 157.046 110.781 150.981 110.772C150.795 110.742 150.795 110.577 150.793 110.495Z" fill="#343A42"/>
<path d="M62.7925 110.497C66.7034 110.465 70.6161 110.517 74.659 110.669C70.9148 110.785 67.0404 110.8 62.9809 110.781C62.7958 110.747 62.7943 110.581 62.7925 110.497Z" fill="#343A42"/>
<path d="M30.8027 110.487C33.509 110.452 36.2134 110.508 39.0503 110.661C36.5108 110.782 33.8389 110.807 30.9821 110.797C30.7971 110.764 30.8008 110.58 30.8027 110.487Z" fill="#343A42"/>
<path d="M129.595 110.494C131.9 110.459 134.207 110.507 136.647 110.651C134.509 110.766 132.238 110.786 129.781 110.775C129.596 110.745 129.596 110.578 129.595 110.494Z" fill="#343A42"/>
<path d="M142.598 110.778C144.547 110.632 146.68 110.511 148.999 110.386C149.184 110.382 149.196 110.562 149.2 110.652C147.064 110.763 144.923 110.782 142.598 110.778Z" fill="#343A42"/>
<path d="M76.1938 110.799C78.5773 110.701 81.1459 110.629 83.8474 110.652C81.4465 110.773 78.9128 110.799 76.1938 110.799Z" fill="#343A42"/>
<path d="M18.0518 112.168C18.9201 112.011 19.8691 112 20.9939 111.978C21.3205 111.985 21.4713 112.002 21.7356 112.017C20.6103 112.115 19.3714 112.214 18.0518 112.168Z" fill="#30373D"/>
<path d="M22.5046 110.796C22.4913 110.641 22.5914 110.609 22.7504 110.728C22.791 110.776 22.6 110.816 22.5046 110.796Z" fill="#273038"/>
<path d="M137.705 110.772C137.689 110.617 137.789 110.585 137.949 110.704C137.987 110.754 137.799 110.793 137.705 110.772Z" fill="#343A42"/>
</g>
<defs>
<clipPath id="clip0_153_1202">
<rect width="200" height="200" fill="white"/>
</clipPath>
</defs>
</svg>
